<mxfile host="app.diagrams.net" agent="Mozilla/5.0 (Windows NT 10.0; Win64; x64) AppleWebKit/537.36 (KHTML, like Gecko) Chrome/134.0.0.0 Safari/537.36 OPR/119.0.0.0 (Edition ms_store)" version="27.1.3">
  <diagram name="Page-1" id="XL3Z6UeDdF42PgGiUAsY">
    <mxGraphModel dx="1896" dy="1813" grid="1" gridSize="10" guides="1" tooltips="1" connect="1" arrows="1" fold="1" page="1" pageScale="1" pageWidth="850" pageHeight="1100" math="0" shadow="0">
      <root>
        <mxCell id="0" />
        <mxCell id="1" parent="0" />
        <mxCell id="hxF-pu7DJPC36JIZi9GR-1" value="" style="strokeWidth=1;shadow=0;dashed=0;align=center;html=1;shape=mxgraph.mockup.containers.browserWindow;rSize=0;strokeColor=#666666;strokeColor2=#008cff;strokeColor3=#c4c4c4;mainText=,;recursiveResize=0;" vertex="1" parent="1">
          <mxGeometry x="-810" y="-200" width="1970" height="1150" as="geometry" />
        </mxCell>
        <mxCell id="hxF-pu7DJPC36JIZi9GR-2" value="Page 1" style="strokeWidth=1;shadow=0;dashed=0;align=center;html=1;shape=mxgraph.mockup.containers.anchor;fontSize=17;fontColor=#666666;align=left;whiteSpace=wrap;" vertex="1" parent="hxF-pu7DJPC36JIZi9GR-1">
          <mxGeometry x="60" y="12" width="110" height="26" as="geometry" />
        </mxCell>
        <mxCell id="hxF-pu7DJPC36JIZi9GR-3" value="https://www.draw.io" style="strokeWidth=1;shadow=0;dashed=0;align=center;html=1;shape=mxgraph.mockup.containers.anchor;rSize=0;fontSize=17;fontColor=#666666;align=left;" vertex="1" parent="hxF-pu7DJPC36JIZi9GR-1">
          <mxGeometry x="130" y="60" width="250" height="26" as="geometry" />
        </mxCell>
        <mxCell id="hxF-pu7DJPC36JIZi9GR-18" value="" style="shape=mxgraph.mockup.containers.marginRect;rectMarginTop=10;strokeColor=#666666;strokeWidth=1;dashed=0;rounded=1;arcSize=5;recursiveResize=0;html=1;whiteSpace=wrap;" vertex="1" parent="hxF-pu7DJPC36JIZi9GR-1">
          <mxGeometry y="470" width="440" height="680" as="geometry" />
        </mxCell>
        <mxCell id="hxF-pu7DJPC36JIZi9GR-19" value="Filter Group" style="shape=rect;strokeColor=none;fillColor=#008cff;strokeWidth=1;dashed=0;rounded=1;arcSize=20;fontColor=#ffffff;fontSize=17;spacing=2;spacingTop=-2;align=left;autosize=1;spacingLeft=4;resizeWidth=0;resizeHeight=0;perimeter=none;html=1;whiteSpace=wrap;" vertex="1" parent="hxF-pu7DJPC36JIZi9GR-18">
          <mxGeometry x="5" width="120" height="30" as="geometry" />
        </mxCell>
        <mxCell id="hxF-pu7DJPC36JIZi9GR-20" value="Find your place to stay in airbnb&lt;div&gt;&lt;br&gt;&lt;/div&gt;" style="text;html=1;align=center;verticalAlign=middle;whiteSpace=wrap;rounded=0;" vertex="1" parent="hxF-pu7DJPC36JIZi9GR-18">
          <mxGeometry x="145" y="50" width="150" height="50" as="geometry" />
        </mxCell>
        <mxCell id="hxF-pu7DJPC36JIZi9GR-21" value="Location" style="strokeWidth=1;shadow=0;dashed=0;align=center;html=1;shape=mxgraph.mockup.forms.searchBox;strokeColor=#999999;mainText=;strokeColor2=#008cff;fontColor=#666666;fontSize=17;align=left;spacingLeft=3;whiteSpace=wrap;" vertex="1" parent="hxF-pu7DJPC36JIZi9GR-18">
          <mxGeometry y="110" width="440" height="60" as="geometry" />
        </mxCell>
        <mxCell id="hxF-pu7DJPC36JIZi9GR-22" value="Check in" style="strokeWidth=1;shadow=0;dashed=0;align=center;html=1;shape=mxgraph.mockup.forms.searchBox;strokeColor=#999999;mainText=;strokeColor2=#008cff;fontColor=#666666;fontSize=17;align=left;spacingLeft=3;whiteSpace=wrap;" vertex="1" parent="hxF-pu7DJPC36JIZi9GR-18">
          <mxGeometry y="170" width="220" height="60" as="geometry" />
        </mxCell>
        <mxCell id="hxF-pu7DJPC36JIZi9GR-23" value="Check out" style="strokeWidth=1;shadow=0;dashed=0;align=center;html=1;shape=mxgraph.mockup.forms.searchBox;strokeColor=#999999;mainText=;strokeColor2=#008cff;fontColor=#666666;fontSize=17;align=left;spacingLeft=3;whiteSpace=wrap;" vertex="1" parent="hxF-pu7DJPC36JIZi9GR-18">
          <mxGeometry x="220" y="170" width="220" height="60" as="geometry" />
        </mxCell>
        <mxCell id="hxF-pu7DJPC36JIZi9GR-4" value="" style="shape=mxgraph.mockup.containers.marginRect;rectMarginTop=10;strokeColor=#666666;strokeWidth=1;dashed=0;rounded=1;arcSize=5;recursiveResize=0;html=1;whiteSpace=wrap;" vertex="1" parent="1">
          <mxGeometry x="-810" y="-90" width="1970" height="360" as="geometry" />
        </mxCell>
        <mxCell id="hxF-pu7DJPC36JIZi9GR-5" value="Header" style="shape=rect;strokeColor=none;fillColor=#008cff;strokeWidth=1;dashed=0;rounded=1;arcSize=20;fontColor=#ffffff;fontSize=17;spacing=2;spacingTop=-2;align=left;autosize=1;spacingLeft=4;resizeWidth=0;resizeHeight=0;perimeter=none;html=1;whiteSpace=wrap;" vertex="1" parent="hxF-pu7DJPC36JIZi9GR-4">
          <mxGeometry x="5" width="80" height="30" as="geometry" />
        </mxCell>
        <mxCell id="hxF-pu7DJPC36JIZi9GR-6" value="" style="whiteSpace=wrap;html=1;aspect=fixed;" vertex="1" parent="hxF-pu7DJPC36JIZi9GR-4">
          <mxGeometry x="60" y="50" width="170" height="170" as="geometry" />
        </mxCell>
        <mxCell id="hxF-pu7DJPC36JIZi9GR-7" value="" style="shape=mxgraph.mockup.containers.marginRect;rectMarginTop=10;strokeColor=#666666;strokeWidth=1;dashed=0;rounded=1;arcSize=5;recursiveResize=0;html=1;whiteSpace=wrap;" vertex="1" parent="hxF-pu7DJPC36JIZi9GR-4">
          <mxGeometry y="250" width="1970" height="110" as="geometry" />
        </mxCell>
        <mxCell id="hxF-pu7DJPC36JIZi9GR-8" value="Search and bar Container" style="shape=rect;strokeColor=none;fillColor=#008cff;strokeWidth=1;dashed=0;rounded=1;arcSize=20;fontColor=#ffffff;fontSize=17;spacing=2;spacingTop=-2;align=left;autosize=1;spacingLeft=4;resizeWidth=0;resizeHeight=0;perimeter=none;html=1;whiteSpace=wrap;" vertex="1" parent="hxF-pu7DJPC36JIZi9GR-7">
          <mxGeometry x="5" width="220" height="30" as="geometry" />
        </mxCell>
        <mxCell id="hxF-pu7DJPC36JIZi9GR-9" value="" style="swimlane;shape=mxgraph.bootstrap.anchor;strokeColor=#666666;fillColor=#ffffff;fontColor=#666666;fontStyle=0;childLayout=stackLayout;horizontal=0;startSize=0;horizontalStack=1;resizeParent=1;resizeParentMax=0;resizeLast=0;collapsible=0;marginBottom=0;whiteSpace=wrap;html=1;" vertex="1" parent="hxF-pu7DJPC36JIZi9GR-7">
          <mxGeometry x="1420" y="30" width="500" height="80" as="geometry" />
        </mxCell>
        <mxCell id="hxF-pu7DJPC36JIZi9GR-10" value="Button 1" style="text;strokeColor=#008CFF;align=center;verticalAlign=middle;spacingLeft=10;spacingRight=10;overflow=hidden;points=[[0,0.5],[1,0.5]];portConstraint=eastwest;rotatable=0;whiteSpace=wrap;html=1;shape=mxgraph.mockup.leftButton;rSize=10;fillColor=#008CFF;fontColor=#ffffff;fontSize=17;fontStyle=1;" vertex="1" parent="hxF-pu7DJPC36JIZi9GR-9">
          <mxGeometry width="125" height="80" as="geometry" />
        </mxCell>
        <mxCell id="hxF-pu7DJPC36JIZi9GR-11" value="Button 2" style="text;strokeColor=inherit;align=center;verticalAlign=middle;spacingLeft=10;spacingRight=10;overflow=hidden;points=[[0,0.5],[1,0.5]];portConstraint=eastwest;rotatable=0;whiteSpace=wrap;html=1;rSize=5;fillColor=inherit;fontColor=inherit;fontSize=17;fontStyle=1;" vertex="1" parent="hxF-pu7DJPC36JIZi9GR-9">
          <mxGeometry x="125" width="125" height="80" as="geometry" />
        </mxCell>
        <mxCell id="hxF-pu7DJPC36JIZi9GR-12" value="Button 3" style="text;strokeColor=inherit;align=center;verticalAlign=middle;spacingLeft=10;spacingRight=10;overflow=hidden;points=[[0,0.5],[1,0.5]];portConstraint=eastwest;rotatable=0;whiteSpace=wrap;html=1;rSize=5;fillColor=inherit;fontColor=inherit;fontSize=17;fontStyle=1;" vertex="1" parent="hxF-pu7DJPC36JIZi9GR-9">
          <mxGeometry x="250" width="125" height="80" as="geometry" />
        </mxCell>
        <mxCell id="hxF-pu7DJPC36JIZi9GR-13" value="Button 4" style="text;strokeColor=inherit;align=center;verticalAlign=middle;spacingLeft=10;spacingRight=10;overflow=hidden;points=[[0,0.5],[1,0.5]];portConstraint=eastwest;rotatable=0;whiteSpace=wrap;html=1;shape=mxgraph.mockup.rightButton;rSize=10;fillColor=inherit;fontColor=inherit;fontSize=17;fontStyle=1;" vertex="1" parent="hxF-pu7DJPC36JIZi9GR-9">
          <mxGeometry x="375" width="125" height="80" as="geometry" />
        </mxCell>
        <mxCell id="hxF-pu7DJPC36JIZi9GR-16" value="Search" style="strokeWidth=1;shadow=0;dashed=0;align=center;html=1;shape=mxgraph.mockup.forms.searchBox;strokeColor=#999999;mainText=;strokeColor2=#008cff;fontColor=#666666;fontSize=17;align=left;spacingLeft=3;whiteSpace=wrap;" vertex="1" parent="hxF-pu7DJPC36JIZi9GR-7">
          <mxGeometry x="562" y="21" width="840" height="80" as="geometry" />
        </mxCell>
        <mxCell id="hxF-pu7DJPC36JIZi9GR-17" value="&lt;h1 style=&quot;margin-top: 0px;&quot;&gt;AirBnb&lt;/h1&gt;&lt;p&gt;Subtitel&lt;/p&gt;" style="text;html=1;whiteSpace=wrap;overflow=hidden;rounded=0;" vertex="1" parent="hxF-pu7DJPC36JIZi9GR-4">
          <mxGeometry x="1690" y="50" width="220" height="160" as="geometry" />
        </mxCell>
        <mxCell id="hxF-pu7DJPC36JIZi9GR-15" value="" style="verticalLabelPosition=bottom;shadow=0;dashed=0;align=center;html=1;verticalAlign=top;strokeWidth=1;shape=mxgraph.mockup.forms.splitter;strokeColor=#999999;direction=north;" vertex="1" parent="1">
          <mxGeometry x="1150" y="-80" width="10" height="1030" as="geometry" />
        </mxCell>
      </root>
    </mxGraphModel>
  </diagram>
</mxfile>
